# xmcd CD database file
#
# Track frame offsets:
#	150
#	17857
#	29535
#	46575
#	60070
#	78667
#	102135
#	119727
#	133262
#	148515
#
# Disc length: 2202 seconds
#
# Revision: 1
# Processed by: cddbd v1.5.1PL0 Copyright (c) Steve Scherf et al.
# Submitted via: CDex 1.50Beta6
#
DISCID=8308980a
DTITLE=Inner Dam - When Angels Fall
DYEAR=1998
DGENRE=Hardcore
TTITLE0=Dust Of Insult
TTITLE1=Turned In
TTITLE2=All Heaven In A Rage
TTITLE3=Killer Of The Soul
TTITLE4=Conviction
TTITLE5=Intoro/When Silence Breaks
TTITLE6=Through Closed Doors
TTITLE7=Full Circle Broken
TTITLE8=Fall To Nothing
TTITLE9=Structure
EXTD=YEAR: 1998
EXTT0=
EXTT1=
EXTT2=
EXTT3=
EXTT4=
EXTT5=
EXTT6=
EXTT7=
EXTT8=
EXTT9=
PLAYORDER=
